<svg width="320" height="200" viewBox="0 0 320 200" xmlns="http://www.w3.org/2000/svg">
  <defs>
    <linearGradient id="video2-bg" x1="28" y1="26" x2="278" y2="170" gradientUnits="userSpaceOnUse">
      <stop offset="0" stop-color="#14304b" />
      <stop offset="0.58" stop-color="#365874" />
      <stop offset="1" stop-color="#c69754" />
    </linearGradient>
  </defs>
  <rect width="320" height="200" rx="22" fill="#f5f0e8" />
  <circle cx="256" cy="42" r="34" fill="#eee1cb" />
  <rect x="20" y="18" width="280" height="164" rx="22" fill="url(#video2-bg)" />
  <rect x="44" y="42" width="232" height="116" rx="16" fill="#f9f3e9" fill-opacity="0.96" />
  <rect x="62" y="58" width="86" height="84" rx="12" fill="#173654" />
  <circle cx="105" cy="86" r="18" fill="#d2a15c" opacity="0.9" />
  <path d="M85 118c9-11 20-16 32-16 12 0 23 5 32 16" fill="none" stroke="#f6eedf" stroke-opacity="0.84" stroke-width="3" stroke-linecap="round" />
  <rect x="164" y="62" width="86" height="12" rx="6" fill="#ddc8a7" />
  <rect x="164" y="82" width="70" height="8" rx="4" fill="#173654" fill-opacity="0.22" />
  <rect x="164" y="98" width="78" height="8" rx="4" fill="#173654" fill-opacity="0.16" />
  <rect x="164" y="114" width="56" height="8" rx="4" fill="#173654" fill-opacity="0.12" />
  <circle cx="236" cy="126" r="18" fill="#c69754" opacity="0.9" />
  <path d="M236 114c8 4 14 12 14 21" fill="none" stroke="#fffaf2" stroke-width="2.6" stroke-linecap="round" />
  <path d="M236 114c-8 4-14 12-14 21" fill="none" stroke="#fffaf2" stroke-width="2.6" stroke-linecap="round" />
  <path d="M222 126h28M236 108v36" fill="none" stroke="#fffaf2" stroke-width="2.4" stroke-linecap="round" />
</svg>
